<?xml version="1.0" standalone="no"?><!DOCTYPE svg PUBLIC "-//W3C//DTD SVG 1.1//EN" "http://www.w3.org/Graphics/SVG/1.1/DTD/svg11.dtd"><svg t="1751423408411" class="icon" viewBox="0 0 1024 1024" version="1.1" xmlns="http://www.w3.org/2000/svg" p-id="7101" xmlns:xlink="http://www.w3.org/1999/xlink" width="200" height="200"><path d="M990.08 666.88L931.52 296A164.16 164.16 0 0 0 768 160H257.6a164.16 164.16 0 0 0-165.12 136L33.92 666.88A174.08 174.08 0 0 0 210.88 864c152.64 0 172.48-135.36 190.08-192h222.08c16.64 54.08 35.84 192 190.08 192a174.08 174.08 0 0 0 176.96-197.12zM813.12 800c-96 0-106.88-76.16-135.68-169.28a32 32 0 0 0-32-22.72h-268.16a32 32 0 0 0-32 22.72C317.44 725.76 307.52 800 210.88 800A110.08 110.08 0 0 1 96 676.8L155.84 305.92A101.44 101.44 0 0 1 257.6 224H768a101.44 101.44 0 0 1 101.76 81.92L928 676.8A110.08 110.08 0 0 1 813.12 800z" fill="#ffffff" p-id="7102"></path><path d="M736 384m-32 0a32 32 0 1 0 64 0 32 32 0 1 0-64 0Z" fill="#ffffff" p-id="7103"></path><path d="M736 512m-32 0a32 32 0 1 0 64 0 32 32 0 1 0-64 0Z" fill="#ffffff" p-id="7104"></path><path d="M672 448m-32 0a32 32 0 1 0 64 0 32 32 0 1 0-64 0Z" fill="#ffffff" p-id="7105"></path><path d="M800 448m-32 0a32 32 0 1 0 64 0 32 32 0 1 0-64 0Z" fill="#ffffff" p-id="7106"></path><path d="M544 384h-64a32 32 0 0 0 0 64h64a32 32 0 0 0 0-64zM352 416h-32v-32a32 32 0 0 0-64 0v32H224a32 32 0 0 0 0 64h32v32a32 32 0 0 0 64 0v-32h32a32 32 0 0 0 0-64z" fill="#ffffff" p-id="7107"></path></svg>