<?xml version="1.0" standalone="no"?><!DOCTYPE svg PUBLIC "-//W3C//DTD SVG 1.1//EN" "http://www.w3.org/Graphics/SVG/1.1/DTD/svg11.dtd"><svg t="1751423525616" class="icon" viewBox="0 0 1097 1024" version="1.1" xmlns="http://www.w3.org/2000/svg" p-id="13359" xmlns:xlink="http://www.w3.org/1999/xlink" width="214.2578125" height="200"><path d="M109.714286 109.714286v512h438.857143v-73.142857H182.857143V182.857143h731.428571v219.428571h73.142857V109.714286z" p-id="13360" fill="#ffffff"></path><path d="M219.428571 256h109.714286v73.142857H219.428571zM402.285714 256h109.714286v73.142857h-109.714286zM585.142857 256h109.714286v73.142857h-109.714286zM768 256h109.714286v73.142857h-109.714286zM219.428571 402.285714h109.714286v73.142857H219.428571zM402.285714 402.285714h219.428572v73.142857h-219.428572zM804.571429 438.857143a185.819429 185.819429 0 0 0-182.857143 182.857143v109.714285a183.405714 183.405714 0 0 0 182.857143 182.857143 183.405714 183.405714 0 0 0 182.857142-182.857143v-109.714285a183.405714 183.405714 0 0 0-182.857142-182.857143z m109.714285 292.571428a109.714286 109.714286 0 0 1-219.428571 0v-109.714285a109.714286 109.714286 0 0 1 219.428571 0z" p-id="13361" fill="#ffffff"></path><path d="M768 585.142857h73.142857v109.714286h-73.142857z" p-id="13362" fill="#ffffff"></path></svg>